<svg width="24" height="24" viewBox="0 0 20 20" fill="none" xmlns="http://www.w3.org/2000/svg">
  <path
    d="M 10.051105,10.029459 2.0992315,2.1053768 2.0760059,1.9864486 2.0804958,1.8621847 2.1391163,1.643079 2.220557,1.4690043 2.3564232,1.2886592 2.5150284,1.1461449 2.6921093,1.041915 2.9096188,0.98332952 3.1715852,0.97326412 3.3698965,1.0415539 3.5088266,1.1268449 c 0,0 5.3400222,5.3184875 8.0044884,7.9855944 2.519454,2.5219507 7.537935,7.5862807 7.537935,7.5862807 l 0.02894,0.214285 -0.0171,0.14878 -0.1005,0.24865 -0.13127,0.20558 -0.18078,0.11712 -0.39523,0.0515 -0.34863,-0.0417 -0.30136,-0.05448 z"
    fill="currentColor"
  />
  <path
    d="m 7.691028,16.683575 v -2.62501 L 7.657132,13.798644 7.4905786,13.611851 7.260685,13.509375 l -0.3325474,0.0777 -0.96078,0.92048 -0.857142,0.821198 -0.1082631,0.08074 -0.1103851,0.04707 -0.3229823,0.0801 -0.1461523,0.02579 -0.1471934,0.0092 -0.2983253,-0.102224 -0.1270483,-0.09008 -0.064289,-0.127474 -0.063955,-0.263435 -0.024713,-0.179553 0.010428,-0.184674 0.072954,-0.296894 0.057986,-0.142207 0.071673,-0.112351 1.9392162,-1.918984 2.03871,-2.017434 0.2703615,-0.101748 0.2596185,-0.046572 0.2706753,0.050584 0.2593047,0.09774 2.017427,2.038713 1.896905,1.916904 0.09735,0.121796 0.05246,0.137008 0.07173,0.335572 0.0079,0.146138 -0.01371,0.125605 -0.07335,0.291066 -0.08444,0.127885 -0.146171,0.08113 -0.410174,0.08805 -0.437275,-0.08783 -0.144562,-0.05122 -0.135506,-0.113406 -0.820639,-0.786217 -0.9607698,-0.92048 -0.2673073,-0.07481 -0.290273,0.05099 -0.1574318,0.202784 -0.047875,0.29253 v 2.62501 2.62502 h -0.70556 -0.70555 z"
    fill="currentColor"
  />
  <path
    d="m 16.304089,15.258667 -0.265383,-0.365579 -0.06798,-0.162223 0.0854,-0.231431 0.40916,-0.448534 1.107171,-1.097132 0.296645,-1.281672 -0.2383,-1.202061 L 17.089413,9.0877969 16.154703,8.2002373 15.81186,7.9743984 15.332404,7.8658886 14.364653,7.6830742 13.626493,7.6435186 12.957256,7.5438518 12.438321,7.1975852 11.658646,5.6488388 10.854364,4.6344376 9.8519766,3.8687931 7.8716689,3.182083 6.2500793,2.9913833 5.1315817,3.3755478 4.6146478,3.1745633 4.3096858,3.1073175 4.2384658,2.8579559 4.0777062,2.5757492 4.1477926,2.3513539 4.2735925,2.0748792 4.9721592,1.7123559 5.8763887,1.4267814 7.2936607,1.4681151 8.4285926,1.6121324 9.6004865,1.8490788 10.741615,2.34184 c 0,0 0.559125,0.2875368 0.811363,0.4729389 0.313134,0.2301627 0.592963,0.5046889 0.860994,0.786092 0.237471,0.2493192 0.475873,0.5121218 0.65853,0.7958082 0.19846,0.3082304 0.434089,0.7307565 0.434089,0.7307565 l 0.376151,0.7553515 0.458193,0.1019718 0.487289,0.064891 0.556136,0.074161 1.408418,0.3626418 1.313539,0.9434109 1.02211,1.6007597 0.504056,1.8690677 -0.111242,1.423267 -0.352266,1.237874 -1.100146,1.343994 -0.728572,0.750702 -0.516938,-0.155213 -0.230136,-0.07272 z"
    fill="currentColor"
  />
  <path
    d="M 1.6138492,12.508948 1.0490687,11.621996 0.72059495,10.849601 0.63051947,10.160612 0.58326933,9.2066863 0.63570937,7.4920713 0.80066643,6.6820338 1.1324883,5.7630713 c 0,0 0.2178985,-0.565387 0.3582622,-0.863416 0.1152812,-0.2447722 0.438075,-0.7928829 0.438075,-0.7928829 L 2.3981686,3.5210278 2.7669268,3.1409336 3.1529902,2.7617114 3.6421333,2.8648172 3.8774895,2.9246812 4.0592512,3.0371428 4.1261532,3.1439781 4.1446582,3.2771988 4.1179392,3.4321243 4.1868721,3.7820209 3.7113935,4.2548283 3.1514892,5.0080206 2.713235,5.8072869 2.4036658,6.7348067 2.2455131,7.5674201 l -0.062056,0.5470557 -0.039976,0.5260699 -0.026896,0.5430046 0.022526,0.6793182 0.1114643,0.4789605 0.1112018,0.288285 0.482725,0.857964 0.6816229,1.096395 0.071011,0.302618 -0.025222,0.346639 -0.086635,0.273643 -0.171998,0.185054 -0.1590692,0.08169 -0.1707425,0.04345 -0.1862291,-0.01593 -0.1687761,-0.04239 -0.1485134,-0.07993 -0.1469069,-0.165382 z"
    fill="currentColor"
  />
</svg>
